HIERARCHY
ROOT Hips
{
	OFFSET 0.00000 0.00000 0.00000
	CHANNELS 6 Xposition Yposition Zposition Zrotation Yrotation Xrotation 
	JOINT LHipJoint
	{
		OFFSET 0 0 0
		CHANNELS 3 Zrotation Yrotation Xrotation
		JOINT LeftUpLeg
		{
			OFFSET 1.29432 -1.88279 0.59910
			CHANNELS 3 Zrotation Yrotation Xrotation
			JOINT LeftLeg
			{
				OFFSET 2.63039 -7.22694 0.00000
				CHANNELS 3 Zrotation Yrotation Xrotation
				JOINT LeftFoot
				{
					OFFSET 2.70674 -7.43672 0.00000
					CHANNELS 3 Zrotation Yrotation Xrotation
					JOINT LeftToeBase
					{
						OFFSET 0.15066 -0.41394 2.09027
						CHANNELS 3 Zrotation Yrotation Xrotation
						End Site
						{
							OFFSET 0.00000 -0.00000 1.07518
						}
					}
				}
			}
		}
	}
	JOINT RHipJoint
	{
		OFFSET 0 0 0
		CHANNELS 3 Zrotation Yrotation Xrotation
		JOINT RightUpLeg
		{
			OFFSET -1.37068 -1.88279 0.59910
			CHANNELS 3 Zrotation Yrotation Xrotation
			JOINT RightLeg
			{
				OFFSET -2.57023 -7.06166 0.00000
				CHANNELS 3 Zrotation Yrotation Xrotation
				JOINT RightFoot
				{
					OFFSET -2.76461 -7.59570 0.00000
					CHANNELS 3 Zrotation Yrotation Xrotation
					JOINT RightToeBase
					{
						OFFSET -0.24175 -0.64785 2.19719
						CHANNELS 3 Zrotation Yrotation Xrotation
						End Site
						{
							OFFSET -0.00000 -0.00000 1.14803
						}
					}
				}
			}
		}
	}
	JOINT LowerBack
	{
		OFFSET 0 0 0
		CHANNELS 3 Zrotation Yrotation Xrotation
		JOINT Spine
		{
			OFFSET -0.03138 2.03983 -0.23106
			CHANNELS 3 Zrotation Yrotation Xrotation
			JOINT Spine1
			{
				OFFSET -0.00325 2.06238 -0.06878
				CHANNELS 3 Zrotation Yrotation Xrotation
				JOINT Neck
				{
					OFFSET 0 0 0
					CHANNELS 3 Zrotation Yrotation Xrotation
					JOINT Neck1
					{
						OFFSET -0.00002 1.75318 0.18090
						CHANNELS 3 Zrotation Yrotation Xrotation
						JOINT Head
						{
							OFFSET 0.08806 1.75856 -0.25387
							CHANNELS 3 Zrotation Yrotation Xrotation
							End Site
							{
								OFFSET 0.02554 1.78597 -0.10684
							}
						}
					}
				}
				JOINT LeftShoulder
				{
					OFFSET 0 0 0
					CHANNELS 3 Zrotation Yrotation Xrotation
					JOINT LeftArm
					{
						OFFSET 3.09657 1.33597 -0.04414
						CHANNELS 3 Zrotation Yrotation Xrotation
						JOINT LeftForeArm
						{
							OFFSET 5.34298 -0.00000 -0.00000
							CHANNELS 3 Zrotation Yrotation Xrotation
							JOINT LeftHand
							{
								OFFSET 3.67262 -0.00000 -0.00000
								CHANNELS 3 Zrotation Yrotation Xrotation
								JOINT LeftFingerBase
								{
									OFFSET 0 0 0
									CHANNELS 3 Zrotation Yrotation Xrotation
									JOINT LeftHandIndex1
									{
										OFFSET 0.59930 -0.00000 -0.00000
										CHANNELS 3 Zrotation Yrotation Xrotation
										End Site
										{
											OFFSET 0.48317 -0.00000 -0.00000
										}
									}
								}
								JOINT LThumb
								{
									OFFSET 0 0 0
									CHANNELS 3 Zrotation Yrotation Xrotation
									End Site
									{
										OFFSET 0.49055 -0.00000 0.49055
									}
								}
							}
						}
					}
				}
				JOINT RightShoulder
				{
					OFFSET 0 0 0
					CHANNELS 3 Zrotation Yrotation Xrotation
					JOINT RightArm
					{
						OFFSET -3.16460 1.32273 -0.23382
						CHANNELS 3 Zrotation Yrotation Xrotation
						JOINT RightForeArm
						{
							OFFSET -5.54967 -0.01834 0.03348
							CHANNELS 3 Zrotation Yrotation Xrotation
							JOINT RightHand
							{
								OFFSET -3.69401 -0.00000 0.00000
								CHANNELS 3 Zrotation Yrotation Xrotation
								JOINT RightFingerBase
								{
									OFFSET 0 0 0
									CHANNELS 3 Zrotation Yrotation Xrotation
									JOINT RightHandIndex1
									{
										OFFSET -0.63811 -0.00000 0.00000
										CHANNELS 3 Zrotation Yrotation Xrotation
										End Site
										{
											OFFSET -0.51446 -0.00000 0.00000
										}
									}
								}
								JOINT RThumb
								{
									OFFSET 0 0 0
									CHANNELS 3 Zrotation Yrotation Xrotation
									End Site
									{
										OFFSET -0.52232 -0.00000 0.52232
									}
								}
							}
						}
					}
				}
			}
		}
	}
}
MOTION
Frames: 10
Frame Time: .0083333
18.0353 12.8451 9.8874 0 0 0 0 0 0 -21 0 0 0 0 0 0 0 0 0 0 0 0 0 0 21 0 0 0 0 0 0 0 0 0 0 0 0 0 0 0 0 0 0 0 0 0 0 -16 0 0 21 0 0 11 0 0 0 -8 0 0 0 0 0 0 0 0 0 0 0 0 0 0 0 0 0 0 0 0 8 0 0 0 0 0 0 0 0 0 0 0 0 0 0 0 0 0
18.0353 12.8451 9.8874 17.9407 -81.7947 -55.7266 0.0000 0.0000 0.0000 -7.8028 -11.8606 -19.4077 2.2676 9.4026 27.0631 1.9325 14.7179 25.5024 0.3663 3.8880 10.7617 0.0000 0.0000 0.0000 -1.5567 14.7880 -21.2478 -4.1183 -12.3162 36.8599 2.7873 -28.0670 -8.8158 -6.4041 -14.8088 46.5826 1.0988 1.5473 21.2818 -0.4100 0.9433 15.2488 -1.2597 0.0310 4.8492 11.6623 10.1381 1.6546 -10.0556 14.2375 9.1185 -4.3348 7.0994 4.0106 0.0000 0.0000 0.0000 -83.8071 -14.0427 54.8156 52.2015 -53.8457 -27.9422 -0.0000 -0.0000 16.9845 -1.0348 33.8135 -0.5759 -7.1250 0.0000 -0.0000 -38.2567 59.4684 -14.8318 0.0000 0.0000 0.0000 90.5807 12.5568 33.3158 -45.7546 51.1328 -22.8248 0.0000 0.0000 18.6731 4.6739 20.6999 1.6553 7.1250 -0.0000 -0.0000 20.9001 -10.2048 18.1519
18.0332 12.8429 9.8901 18.2021 -81.6826 -55.9403 0.0000 0.0000 0.0000 -7.9049 -12.0324 -19.4211 2.2694 9.4060 27.0737 1.9699 14.5728 25.7029 0.3083 3.5696 9.8688 0.0000 0.0000 0.0000 -1.6736 14.6583 -21.3219 -4.1104 -12.3059 36.8229 2.7778 -28.0575 -8.3671 -6.2880 -14.7017 46.1268 1.1446 1.4966 21.2350 -0.5569 0.8889 15.2356 -1.4339 0.0166 4.8601 11.5876 10.1416 1.4554 -9.7925 14.2126 9.3671 -4.2299 7.0851 4.0920 0.0000 0.0000 0.0000 -83.6116 -14.0215 54.7831 52.4156 -53.9245 -28.1151 -0.0000 -0.0000 17.0701 -1.4612 34.0726 -0.8188 -7.1250 0.0000 -0.0000 -38.9337 59.5730 -15.2454 0.0000 0.0000 0.0000 90.7419 12.5421 33.3466 -45.7916 51.1504 -22.8536 0.0000 0.0000 18.4550 4.3984 20.9257 1.5736 7.1250 -0.0000 -0.0000 20.7172 -9.9866 18.0669
18.0375 12.8475 9.8894 18.3865 -81.5818 -56.1599 0.0000 0.0000 0.0000 -8.0480 -12.0832 -19.1065 2.1935 9.2580 26.6058 1.9785 14.8855 25.8105 0.3275 3.6783 10.1733 0.0000 0.0000 0.0000 -1.8792 14.8645 -21.2532 -4.1634 -12.3747 37.0707 2.7237 -27.7222 -9.7609 -6.5773 -14.9654 47.2569 1.1840 1.5044 21.2846 -0.6118 0.9049 15.2493 -1.5182 0.0305 4.8545 11.4639 10.0431 1.5262 -9.6369 14.0633 9.2066 -4.1834 7.0163 3.9956 0.0000 0.0000 0.0000 -83.5846 -14.0456 54.9249 52.6268 -54.0015 -28.2859 -0.0000 -0.0000 16.9082 -1.9215 34.6582 -1.0930 -7.1250 0.0000 -0.0000 -39.9980 59.9202 -16.0863 0.0000 0.0000 0.0000 90.8156 12.4892 33.2121 -45.8700 51.1877 -22.9147 0.0000 0.0000 18.5338 4.0297 21.0049 1.4465 7.1250 -0.0000 -0.0000 20.4907 -9.9028 17.8765
18.0569 12.8667 9.8851 18.1879 -81.6597 -55.9202 0.0000 0.0000 0.0000 -7.9753 -11.9331 -19.0792 2.1612 9.1940 26.4040 1.9794 15.0391 25.8439 0.3735 3.9256 10.8673 0.0000 0.0000 0.0000 -2.2027 15.9461 -21.0455 -4.1901 -12.4092 37.1955 2.6447 -27.3703 -12.3751 -7.0430 -15.3680 49.0368 1.2358 1.5593 21.2387 -0.5159 0.9869 15.2466 -1.4570 0.0729 4.8764 11.3403 9.9054 1.1689 -9.5828 13.8584 9.5182 -4.1389 6.9003 4.1137 0.0000 0.0000 0.0000 -83.7278 -14.0746 55.0492 52.5724 -53.9817 -28.2419 -0.0000 -0.0000 16.9810 -1.8891 34.6745 -1.0750 -7.1250 0.0000 -0.0000 -39.9851 59.9405 -16.0998 0.0000 0.0000 0.0000 90.7386 12.4916 33.0423 -45.8436 51.1751 -22.8941 0.0000 0.0000 18.7351 3.8578 21.0736 1.3890 7.1250 -0.0000 -0.0000 20.3826 -9.8337 17.7986
18.0783 12.8875 9.8840 18.0671 -81.7050 -55.7233 0.0000 0.0000 0.0000 -7.9153 -11.9570 -19.2663 2.1976 9.2661 26.6313 1.9858 14.8574 25.8488 0.3553 3.8296 10.5978 0.0000 0.0000 0.0000 -2.5494 16.9753 -20.9376 -4.1948 -12.4152 37.2172 2.6141 -27.3367 -13.9200 -7.2418 -15.5322 49.7829 1.2092 1.5439 21.1647 -0.4824 0.9671 15.2137 -1.4017 0.0609 4.8724 11.2636 9.8895 0.9891 -9.5270 13.8274 9.7242 -4.0995 6.8773 4.1932 0.0000 -0.0000 0.0000 -83.7891 -14.0067 54.9083 52.5802 -53.9846 -28.2482 -0.0000 -0.0000 17.1711 -1.7759 34.5468 -1.0073 -7.1250 0.0000 -0.0000 -39.7390 59.8684 -15.9111 0.0000 -0.0000 0.0000 90.6877 12.4561 33.1585 -45.8933 51.1987 -22.9328 0.0000 0.0000 18.7566 3.8063 21.0149 1.3667 7.1250 -0.0000 -0.0000 20.3563 -9.8874 17.7485
18.0539 12.8634 9.8864 17.7985 -81.7206 -55.4842 0.0000 0.0000 0.0000 -7.8189 -12.0431 -19.5321 2.2917 9.4488 27.2097 1.9160 14.9306 25.4424 0.4371 4.2422 11.7591 0.0000 0.0000 0.0000 -1.8772 15.2987 -21.3998 -4.1635 -12.3748 37.0711 2.8726 -28.3792 -10.3167 -6.8249 -15.1827 48.2091 1.1469 1.4865 21.1828 -0.4760 0.8788 15.2159 -1.3459 0.0089 4.8609 11.2790 9.9141 1.2056 -9.6148 13.8761 9.5072 -4.1406 6.9066 4.1040 -0.0000 0.0000 0.0000 -83.7886 -13.9595 54.6452 52.6108 -53.9957 -28.2730 -0.0000 -0.0000 17.1350 -2.0491 34.1871 -1.1517 -7.1250 0.0000 -0.0000 -39.6126 59.5256 -15.5192 -0.0000 0.0000 0.0000 90.6511 12.4450 33.4111 -45.9241 51.2133 -22.9569 0.0000 0.0000 18.7100 4.1138 20.8467 1.4662 7.1250 -0.0000 -0.0000 20.5533 -10.0536 17.8721
17.9902 12.7983 9.8937 17.8631 -81.6979 -55.5461 0.0000 0.0000 0.0000 -7.7145 -12.0749 -20.0571 2.4375 9.7234 28.0856 1.7948 15.1610 24.7479 0.6137 5.0139 13.9483 0.0000 0.0000 0.0000 -0.7802 12.3382 -22.2843 -4.1020 -12.2949 36.7834 2.6318 -29.1653 -0.0651 -4.6250 -12.9487 39.1766 1.0901 1.4431 21.1861 -0.5087 0.8108 15.2214 -1.3382 -0.0297 4.8624 11.2575 9.9236 1.2097 -9.6104 13.8879 9.4870 -4.1357 6.9121 4.0967 -0.0000 -0.0000 0.0000 -83.7584 -13.9819 54.4508 52.5193 -53.9624 -28.1990 -0.0000 -0.0000 17.0206 -2.2195 33.8680 -1.2373 -7.1250 0.0000 -0.0000 -39.4379 59.2381 -15.1591 -0.0000 -0.0000 0.0000 90.7253 12.4987 33.5116 -45.7786 51.1443 -22.8435 0.0000 0.0000 18.8854 4.2698 20.8731 1.5238 7.1250 -0.0000 -0.0000 20.6446 -10.0327 17.9730
17.9634 12.7704 9.8988 18.4135 -81.6233 -56.0472 0.0000 0.0000 0.0000 -7.7564 -12.1049 -20.5664 2.5729 9.9692 28.8772 1.8238 14.4558 24.7881 0.4631 4.3650 12.1059 0.0000 0.0000 0.0000 -0.4575 11.1987 -22.6454 -4.0396 -12.2130 36.4896 1.8043 -28.0323 6.8938 -2.3035 -9.4715 27.2817 1.0536 1.4374 21.1615 -0.5919 0.7996 15.2159 -1.4050 -0.0332 4.8685 11.2288 9.9183 1.1206 -9.4981 13.8652 9.5393 -4.0933 6.9010 4.1151 -0.0000 0.0000 0.0000 -83.7048 -14.0249 54.4076 52.4176 -53.9252 -28.1167 -0.0000 -0.0000 16.9611 -2.0575 33.7487 -1.1434 -7.1250 0.0000 -0.0000 -39.1608 59.1822 -14.9773 -0.0000 0.0000 0.0000 90.8331 12.5219 33.5322 -45.7857 51.1476 -22.8490 0.0000 0.0000 18.8336 4.2914 20.6562 1.5163 7.1250 -0.0000 -0.0000 20.6749 -10.2369 17.9114
17.9590 12.7715 9.9017 17.9121 -81.7261 -55.5107 0.0000 0.0000 0.0000 -7.6241 -12.0390 -20.7171 2.5958 10.0101 29.0094 1.9129 13.7093 25.2120 0.2898 3.4621 9.5680 0.0000 0.0000 0.0000 -0.3190 11.1493 -22.6284 -4.0305 -12.2009 36.4465 1.8400 -28.1018 6.6660 -2.3359 -9.5332 27.4778 1.2934 1.4574 21.0605 -0.5585 0.8650 15.2389 -1.5136 0.0198 4.9538 11.2305 9.8657 1.0219 -9.4281 13.7838 9.6381 -4.0713 6.8600 4.1480 0.0000 -0.0000 0.0000 -83.7202 -14.1081 54.6246 52.3890 -53.9147 -28.0936 -0.0000 -0.0000 16.9036 -1.8793 33.7443 -1.0442 -7.1250 0.0000 -0.0000 -38.9875 59.2196 -14.9334 0.0000 -0.0000 0.0000 90.8025 12.5404 33.3535 -45.9725 51.2361 -22.9945 0.0000 0.0000 18.5734 4.6978 20.3925 1.6402 7.1250 -0.0000 -0.0000 20.9402 -10.4936 18.0596
